<svg width="512" height="512" viewBox="0 0 512 512" fill="none" xmlns="http://www.w3.org/2000/svg">
  <!-- Fondo circular con gradiente -->
  <defs>
    <linearGradient id="bgGradient" x1="0%" y1="0%" x2="100%" y2="100%">
      <stop offset="0%" style="stop-color:#3B82F6;stop-opacity:1" />
      <stop offset="100%" style="stop-color:#1D4ED8;stop-opacity:1" />
    </linearGradient>
    <linearGradient id="iconGradient" x1="0%" y1="0%" x2="100%" y2="100%">
      <stop offset="0%" style="stop-color:#FFFFFF;stop-opacity:1" />
      <stop offset="100%" style="stop-color:#F8FAFC;stop-opacity:1" />
    </linearGradient>
  </defs>
  
  <!-- Círculo de fondo -->
  <circle cx="256" cy="256" r="240" fill="url(#bgGradient)" stroke="#E2E8F0" stroke-width="4"/>
  
  <!-- Elemento principal: Código/Desarrollo -->
  <g transform="translate(256, 256)">
    <!-- Terminal/Consola -->
    <rect x="-80" y="-60" width="160" height="120" rx="12" fill="url(#iconGradient)" stroke="#CBD5E1" stroke-width="2"/>
    
    <!-- Barra de título -->
    <rect x="-80" y="-60" width="160" height="24" rx="12" fill="#64748B"/>
    <circle cx="-60" cy="-48" r="4" fill="#EF4444"/>
    <circle cx="-50" cy="-48" r="4" fill="#F59E0B"/>
    <circle cx="-40" cy="-48" r="4" fill="#10B981"/>
    
    <!-- Líneas de código -->
    <rect x="-70" y="-30" width="40" height="3" rx="1.5" fill="#3B82F6"/>
    <rect x="-70" y="-20" width="60" height="3" rx="1.5" fill="#64748B"/>
    <rect x="-70" y="-10" width="50" height="3" rx="1.5" fill="#64748B"/>
    <rect x="-70" y="0" width="70" height="3" rx="1.5" fill="#3B82F6"/>
    <rect x="-70" y="10" width="45" height="3" rx="1.5" fill="#64748B"/>
    <rect x="-70" y="20" width="55" height="3" rx="1.5" fill="#64748B"/>
    <rect x="-70" y="30" width="65" height="3" rx="1.5" fill="#3B82F6"/>
    
    <!-- Cursor parpadeante -->
    <rect x="-70" y="40" width="2" height="3" fill="#3B82F6">
      <animate attributeName="opacity" values="1;0;1" dur="1s" repeatCount="indefinite"/>
    </rect>
  </g>
  
  <!-- Elementos decorativos: Código flotante -->
  <g opacity="0.3">
    <!-- Líneas de código pequeñas -->
    <rect x="50" y="80" width="30" height="2" rx="1" fill="#3B82F6"/>
    <rect x="50" y="85" width="25" height="2" rx="1" fill="#64748B"/>
    <rect x="50" y="90" width="35" height="2" rx="1" fill="#3B82F6"/>
    
    <rect x="430" y="380" width="25" height="2" rx="1" fill="#3B82F6"/>
    <rect x="430" y="385" width="30" height="2" rx="1" fill="#64748B"/>
    <rect x="430" y="390" width="20" height="2" rx="1" fill="#3B82F6"/>
    
    <rect x="80" y="420" width="35" height="2" rx="1" fill="#3B82F6"/>
    <rect x="80" y="425" width="28" height="2" rx="1" fill="#64748B"/>
    <rect x="80" y="430" width="32" height="2" rx="1" fill="#3B82F6"/>
  </g>
  
  <!-- Puntos de conexión/red -->
  <g opacity="0.4">
    <circle cx="100" cy="100" r="3" fill="#3B82F6"/>
    <circle cx="412" cy="412" r="3" fill="#3B82F6"/>
    <circle cx="100" cy="412" r="3" fill="#3B82F6"/>
    <circle cx="412" cy="100" r="3" fill="#3B82F6"/>
    
    <!-- Líneas de conexión -->
    <line x1="100" y1="100" x2="412" y2="412" stroke="#3B82F6" stroke-width="1" opacity="0.3"/>
    <line x1="100" y1="412" x2="412" y2="100" stroke="#3B82F6" stroke-width="1" opacity="0.3"/>
  </g>
</svg>
